<svg width="32" height="32" viewBox="0 0 32 32" fill="none" xmlns="http://www.w3.org/2000/svg">
<circle cx="16" cy="16" r="16" fill="white"/>
<g opacity="0.4">
<path d="M15.9999 16.625C13.3583 16.625 11.2083 14.475 11.2083 11.8333C11.2083 9.19163 13.3583 7.04163 15.9999 7.04163C18.6416 7.04163 20.7916 9.19163 20.7916 11.8333C20.7916 14.475 18.6416 16.625 15.9999 16.625ZM15.9999 8.29163C14.0499 8.29163 12.4583 9.88329 12.4583 11.8333C12.4583 13.7833 14.0499 15.375 15.9999 15.375C17.9499 15.375 19.5416 13.7833 19.5416 11.8333C19.5416 9.88329 17.9499 8.29163 15.9999 8.29163Z" fill="#263238"/>
<path d="M23.1585 24.9583C22.8168 24.9583 22.5335 24.675 22.5335 24.3333C22.5335 21.4583 19.6001 19.125 16.0001 19.125C12.4001 19.125 9.4668 21.4583 9.4668 24.3333C9.4668 24.675 9.18346 24.9583 8.8418 24.9583C8.50013 24.9583 8.2168 24.675 8.2168 24.3333C8.2168 20.775 11.7085 17.875 16.0001 17.875C20.2918 17.875 23.7835 20.775 23.7835 24.3333C23.7835 24.675 23.5001 24.9583 23.1585 24.9583Z" fill="#263238"/>
</g>
</svg>
