<svg width="24" height="24" viewBox="0 0 24 24" fill="none" xmlns="http://www.w3.org/2000/svg">
<g opacity="0.5">
<path d="M9.98996 22.75C9.78996 22.75 9.62996 22.71 9.50996 22.66C9.10996 22.51 8.42996 22.02 8.42996 20.47V14.02H6.08996C4.74996 14.02 4.26996 13.39 4.09996 13.02C3.92996 12.64 3.77996 11.87 4.65996 10.86L12.23 2.26001C13.25 1.10001 14.08 1.18001 14.48 1.33001C14.88 1.48001 15.56 1.97001 15.56 3.52001V9.97001H17.9C19.24 9.97001 19.72 10.6 19.89 10.97C20.06 11.35 20.21 12.12 19.33 13.13L11.76 21.73C11.05 22.54 10.43 22.75 9.98996 22.75ZM13.93 2.74001C13.9 2.78001 13.69 2.88001 13.36 3.26001L5.78996 11.86C5.50996 12.18 5.46996 12.38 5.46996 12.42C5.48996 12.43 5.66996 12.53 6.08996 12.53H9.17996C9.58996 12.53 9.92996 12.87 9.92996 13.28V20.48C9.92996 20.98 10.02 21.2 10.06 21.26C10.09 21.22 10.3 21.12 10.63 20.74L18.2 12.14C18.48 11.82 18.52 11.62 18.52 11.58C18.5 11.57 18.32 11.47 17.9 11.47H14.81C14.4 11.47 14.06 11.13 14.06 10.72V3.52001C14.07 3.02001 13.97 2.81001 13.93 2.74001Z" fill="#292D32"/>
</g>
</svg>
