<svg width="50" height="50" viewBox="0 0 50 50" fill="none" xmlns="http://www.w3.org/2000/svg">
<path d="M35.4166 44.2709H14.5833C13.7291 44.2709 13.0208 43.5626 13.0208 42.7084C13.0208 41.8542 13.7291 41.1459 14.5833 41.1459H35.4166C41.375 41.1459 44.2708 38.2501 44.2708 32.2917V17.7084C44.2708 11.7501 41.375 8.85425 35.4166 8.85425H14.5833C8.62496 8.85425 5.72913 11.7501 5.72913 17.7084C5.72913 18.5626 5.02079 19.2709 4.16663 19.2709C3.31246 19.2709 2.60413 18.5626 2.60413 17.7084C2.60413 10.1042 6.97913 5.72925 14.5833 5.72925H35.4166C43.0208 5.72925 47.3958 10.1042 47.3958 17.7084V32.2917C47.3958 39.8959 43.0208 44.2709 35.4166 44.2709Z" fill="#3368FF"/>
<path d="M24.9996 26.8124C23.2496 26.8124 21.4788 26.2708 20.1246 25.1666L13.6037 19.9583C12.9371 19.4166 12.8121 18.4374 13.3538 17.7708C13.8954 17.1041 14.8746 16.9791 15.5412 17.5208L22.0621 22.7291C23.6454 23.9999 26.3329 23.9999 27.9162 22.7291L34.4371 17.5208C35.1037 16.9791 36.1037 17.0833 36.6245 17.7708C37.1662 18.4374 37.0621 19.4374 36.3746 19.9583L29.8537 25.1666C28.5204 26.2708 26.7496 26.8124 24.9996 26.8124Z" fill="#3368FF"/>
<path d="M16.6666 35.9375H4.16663C3.31246 35.9375 2.60413 35.2292 2.60413 34.375C2.60413 33.5208 3.31246 32.8125 4.16663 32.8125H16.6666C17.5208 32.8125 18.2291 33.5208 18.2291 34.375C18.2291 35.2292 17.5208 35.9375 16.6666 35.9375Z" fill="#3368FF"/>
<path d="M10.4166 27.6042H4.16663C3.31246 27.6042 2.60413 26.8959 2.60413 26.0417C2.60413 25.1876 3.31246 24.4792 4.16663 24.4792H10.4166C11.2708 24.4792 11.9791 25.1876 11.9791 26.0417C11.9791 26.8959 11.2708 27.6042 10.4166 27.6042Z" fill="#3368FF"/>
</svg>
